<svg xmlns="http://www.w3.org/2000/svg" viewBox="0 0 703.32 254.67"><defs><style>.cls-1{fill:none;stroke:#1d1d1b;stroke-miterlimit:10;stroke-width:4px;}</style></defs><title>копияРесурс 24</title><g id="Слой_2" data-name="Слой 2"><g id="Слой_1-2" data-name="Слой 1"><polygon class="cls-1" points="2.28 76.52 37.68 199.33 130.44 211.45 154.85 177.27 126.78 40.57 45 40.57 2.28 76.52"/><line class="cls-1" x1="128.56" y1="213.95" x2="98" y2="79.03"/><polyline class="cls-1" points="98 79.03 125.76 98.75 126.78 40.57 98 79.03 3 79.03"/><polyline class="cls-1" points="24.91 57.48 111.72 57.48 125.76 98.75"/><polygon class="cls-1" points="312.92 4.97 317.8 2.32 347.9 21.85 435.38 64.17 466.5 72.3 430.7 88.17 396.93 188.05 397.13 237.08 286.47 164.66 261.65 161.61 284.84 148.18 313.32 40.77 312.92 4.97"/><polyline class="cls-1" points="466.5 72.3 427.24 76.52 337.73 29.18 315 3.84"/><polyline class="cls-1" points="433.25 63.13 430.7 88.17 313.32 40.77 347.9 21.85"/><polygon class="cls-1" points="559.51 11.4 696.82 64.29 701.3 84.03 683.19 228.25 674.65 251.85 553.2 188.99 559.51 11.4"/><polygon class="cls-1" points="576.76 52.16 572.69 163.03 649.79 202.5 664.23 80.24 576.15 46.67 576.76 52.16"/><polygon class="cls-1" points="464.57 116.55 464.57 131.62 491.12 131.62 491.12 138.21 511.87 124.58 492.03 108.31 491.42 118.38 464.57 116.55"/><polygon class="cls-1" points="187.69 116.55 187.69 131.62 214.24 131.62 214.24 138.21 234.99 124.58 215.15 108.31 214.54 118.38 187.69 116.55"/></g></g></svg>